<?xml version="1.0" encoding="UTF-8"?>
<svg xmlns="http://www.w3.org/2000/svg" xmlns:xlink="http://www.w3.org/1999/xlink" width="24px" height="24px" viewBox="0 0 24 24" version="1.1">
<g id="surface1">
<path style=" stroke:none;fill-rule:nonzero;fill:rgb(93.333333%,93.333333%,92.54902%);fill-opacity:1;" d="M 11.988281 0.0078125 C 5.351562 0.0078125 0 5.375 0 12.011719 C 0 18.644531 5.328125 23.980469 11.960938 23.980469 C 18.59375 23.980469 23.96875 18.664062 23.96875 12.03125 C 23.96875 5.398438 18.632812 0.0078125 11.996094 0.0078125 Z M 11.984375 2.734375 C 17.113281 2.734375 21.246094 6.882812 21.246094 12.011719 C 21.246094 17.136719 17.113281 21.289062 11.984375 21.289062 C 6.859375 21.289062 2.699219 17.136719 2.699219 12.011719 C 2.699219 6.882812 6.859375 2.734375 11.984375 2.734375 Z M 11.984375 2.734375 "/>
<path style=" stroke:none;fill-rule:nonzero;fill:rgb(93.333333%,93.333333%,92.54902%);fill-opacity:1;" d="M 4.113281 7.46875 C 4.113281 7.46875 11.988281 2.941406 11.988281 2.941406 C 11.988281 2.941406 19.828125 7.472656 19.828125 7.472656 L 19.816406 16.5625 L 11.964844 21.101562 L 4.105469 16.5625 Z M 4.113281 7.46875 "/>
<path style=" stroke:none;fill-rule:nonzero;fill:rgb(86.666667%,85.490196%,27.058824%);fill-opacity:1;" d="M 7.960938 18.792969 L 4.109375 16.566406 L 4.101562 12.089844 C 4.097656 9.628906 4.105469 7.601562 4.117188 7.589844 C 4.136719 7.574219 10.578125 11.265625 11.773438 11.980469 L 11.898438 12.054688 L 11.898438 16.539062 C 11.898438 20.101562 11.890625 21.019531 11.855469 21.019531 C 11.832031 21.019531 10.082031 20.015625 7.960938 18.792969 Z M 10.125 17.714844 C 10.125 17.1875 10.117188 17.101562 10.066406 17.039062 C 10.035156 17 9.339844 16.605469 8.523438 16.160156 C 6.910156 15.28125 6.757812 15.191406 6.542969 14.976562 C 6.285156 14.71875 6.28125 14.710938 6.269531 13.394531 C 6.257812 12.257812 6.257812 12.222656 6.324219 12.171875 C 6.460938 12.074219 6.4375 12.0625 8.414062 13.152344 C 10.144531 14.109375 10.054688 14.0625 10.09375 14 C 10.109375 13.972656 10.125 13.679688 10.125 13.347656 C 10.125 12.824219 10.117188 12.738281 10.066406 12.679688 C 9.996094 12.601562 6.8125 10.832031 6.5625 10.734375 C 5.984375 10.507812 5.617188 10.601562 5.425781 11.035156 C 5.308594 11.300781 5.285156 11.589844 5.289062 12.859375 C 5.289062 14.519531 5.355469 14.960938 5.703125 15.550781 C 5.871094 15.839844 6.339844 16.316406 6.652344 16.519531 C 6.777344 16.601562 7.589844 17.054688 8.460938 17.527344 C 9.613281 18.160156 10.050781 18.382812 10.082031 18.355469 C 10.113281 18.328125 10.125 18.15625 10.125 17.714844 Z M 19.765625 6.988281 C 19.152344 6.039062 18.421875 5.257812 17.503906 4.574219 C 16.058594 3.496094 14.3125 2.863281 12.496094 2.757812 L 12.085938 2.734375 L 12.078125 1.378906 C 12.070312 0.242188 12.074219 0.0234375 12.117188 0.0078125 C 12.191406 -0.0234375 13.195312 0.0546875 13.722656 0.132812 C 14.425781 0.230469 15.039062 0.378906 15.765625 0.621094 C 16.5 0.867188 16.929688 1.050781 17.585938 1.390625 C 19.148438 2.210938 20.511719 3.375 21.597656 4.816406 C 21.90625 5.230469 22.335938 5.886719 22.320312 5.929688 C 22.308594 5.957031 20.019531 7.285156 19.980469 7.285156 C 19.96875 7.285156 19.871094 7.152344 19.765625 6.988281 Z M 19.765625 6.988281 "/>
<path style=" stroke:none;fill-rule:nonzero;fill:rgb(90.588235%,46.27451%,16.470588%);fill-opacity:1;" d="M 21.238281 17.269531 C 20.628906 16.917969 20.117188 16.605469 20.101562 16.582031 C 20.082031 16.550781 20.132812 16.410156 20.257812 16.164062 C 21.566406 13.550781 21.566406 10.464844 20.257812 7.851562 C 20.15625 7.648438 20.082031 7.464844 20.089844 7.441406 C 20.109375 7.394531 22.316406 6.121094 22.390625 6.113281 C 22.546875 6.101562 23.265625 7.753906 23.539062 8.742188 C 23.855469 9.894531 23.976562 10.785156 23.976562 12.007812 C 23.976562 13.222656 23.859375 14.113281 23.539062 15.269531 C 23.277344 16.230469 22.554688 17.886719 22.394531 17.910156 C 22.367188 17.910156 21.847656 17.625 21.238281 17.269531 Z M 21.238281 17.269531 "/>
<path style=" stroke:none;fill-rule:nonzero;fill:rgb(87.843137%,15.686275%,14.901961%);fill-opacity:1;" d="M 12.070312 16.542969 L 12.070312 12.0625 L 12.417969 11.859375 C 14.308594 10.757812 19.816406 7.59375 19.828125 7.605469 C 19.835938 7.609375 19.84375 9.625 19.84375 12.074219 C 19.84375 15.742188 19.835938 16.539062 19.800781 16.574219 C 19.773438 16.597656 18.207031 17.511719 16.3125 18.601562 C 14.417969 19.695312 12.703125 20.6875 12.496094 20.804688 C 12.289062 20.925781 12.109375 21.019531 12.09375 21.019531 C 12.082031 21.019531 12.070312 19.007812 12.070312 16.542969 Z M 14.4375 18.023438 L 14.640625 17.902344 L 14.949219 17.015625 L 15.253906 16.128906 L 16.34375 15.527344 C 16.945312 15.191406 17.445312 14.921875 17.460938 14.921875 C 17.472656 14.921875 17.59375 15.121094 17.730469 15.363281 C 17.863281 15.609375 18 15.84375 18.03125 15.882812 L 18.09375 15.957031 L 18.480469 15.734375 C 18.691406 15.613281 18.871094 15.492188 18.878906 15.460938 C 18.882812 15.429688 18.546875 14.753906 18.125 13.960938 C 17.707031 13.167969 17.226562 12.261719 17.0625 11.945312 C 16.734375 11.324219 16.664062 11.246094 16.460938 11.292969 C 16.328125 11.320312 16.125 11.523438 16.035156 11.71875 C 15.996094 11.800781 15.625 12.828125 15.210938 14 C 14.796875 15.171875 14.28125 16.632812 14.0625 17.25 C 13.847656 17.863281 13.679688 18.382812 13.691406 18.398438 C 13.710938 18.433594 14 18.289062 14.4375 18.023438 Z M 16.046875 13.816406 C 16.210938 13.335938 16.359375 12.949219 16.375 12.953125 C 16.421875 12.96875 16.980469 14 16.960938 14.035156 C 16.941406 14.0625 15.925781 14.621094 15.808594 14.667969 C 15.765625 14.683594 15.816406 14.5 16.046875 13.816406 Z M 1.273438 17.398438 C 0.714844 16.28125 0.359375 15.1875 0.160156 13.992188 C 0.0429688 13.304688 0.00390625 12.78125 0.00390625 11.972656 C 0.00390625 10.394531 0.289062 8.917969 0.878906 7.472656 C 1.027344 7.105469 1.480469 6.171875 1.535156 6.117188 C 1.558594 6.09375 3.757812 7.328125 3.867188 7.425781 C 3.882812 7.441406 3.8125 7.617188 3.710938 7.820312 C 3.222656 8.773438 2.902344 9.839844 2.761719 10.984375 C 2.699219 11.476562 2.707031 12.628906 2.777344 13.144531 C 2.929688 14.265625 3.253906 15.316406 3.730469 16.238281 C 3.855469 16.476562 3.878906 16.546875 3.84375 16.578125 C 3.773438 16.648438 1.613281 17.886719 1.5625 17.886719 C 1.535156 17.886719 1.410156 17.675781 1.273438 17.398438 Z M 1.273438 17.398438 "/>
<path style=" stroke:none;fill-rule:nonzero;fill:rgb(23.921569%,61.176471%,27.45098%);fill-opacity:1;" d="M 2.851562 6.640625 C 2.234375 6.28125 1.707031 5.972656 1.683594 5.945312 C 1.644531 5.910156 1.675781 5.839844 1.863281 5.546875 C 3.496094 2.96875 6.132812 1.082031 9.113281 0.351562 C 9.949219 0.148438 10.738281 0.0390625 11.523438 0.0195312 L 11.882812 0.0078125 L 11.882812 2.734375 L 11.472656 2.757812 C 9.816406 2.855469 8.242188 3.378906 6.882812 4.285156 C 6.273438 4.691406 5.929688 4.972656 5.4375 5.460938 C 4.960938 5.9375 4.671875 6.289062 4.292969 6.859375 C 4.140625 7.085938 4.007812 7.273438 3.996094 7.277344 C 3.984375 7.28125 3.46875 6.996094 2.851562 6.640625 Z M 2.851562 6.640625 "/>
<path style=" stroke:none;fill-rule:nonzero;fill:rgb(93.333333%,93.333333%,92.54902%);fill-opacity:1;" d="M 2.800781 17.367188 C 3.414062 17.015625 3.9375 16.730469 3.96875 16.726562 C 4.003906 16.726562 4.101562 16.84375 4.253906 17.074219 C 5.859375 19.511719 8.535156 21.054688 11.449219 21.230469 C 11.675781 21.242188 11.875 21.269531 11.886719 21.289062 C 11.921875 21.328125 11.921875 23.878906 11.886719 23.945312 C 11.820312 24.085938 10.03125 23.886719 9.039062 23.625 C 7.878906 23.324219 7.050781 22.984375 5.992188 22.371094 C 4.9375 21.765625 4.226562 21.21875 3.382812 20.363281 C 2.683594 19.652344 1.609375 18.203125 1.671875 18.050781 C 1.683594 18.027344 2.191406 17.71875 2.800781 17.367188 Z M 2.800781 17.367188 "/>
<path style=" stroke:none;fill-rule:nonzero;fill:rgb(18.823529%,29.019608%,58.823529%);fill-opacity:1;" d="M 12.085938 23.980469 C 12.074219 23.957031 12.070312 23.335938 12.078125 22.605469 L 12.085938 21.277344 L 12.496094 21.253906 C 14.152344 21.15625 15.726562 20.632812 17.085938 19.726562 C 17.691406 19.324219 18.035156 19.042969 18.527344 18.550781 C 19.007812 18.074219 19.296875 17.71875 19.675781 17.152344 C 19.828125 16.929688 19.960938 16.738281 19.972656 16.734375 C 20 16.722656 22.21875 18.003906 22.285156 18.066406 C 22.320312 18.101562 22.292969 18.171875 22.113281 18.453125 C 20.972656 20.25 19.296875 21.769531 17.398438 22.71875 C 15.839844 23.5 14.320312 23.898438 12.488281 24.003906 C 12.179688 24.023438 12.101562 24.019531 12.085938 23.980469 Z M 8.074219 9.660156 C 5.960938 8.4375 4.230469 7.425781 4.230469 7.40625 C 4.230469 7.355469 11.898438 2.941406 11.984375 2.941406 C 12.078125 2.941406 19.785156 7.390625 19.75 7.425781 C 19.671875 7.5 12.027344 11.886719 11.976562 11.886719 C 11.941406 11.882812 10.1875 10.882812 8.074219 9.660156 Z M 10.625 9.847656 C 10.699219 9.808594 10.785156 9.742188 10.8125 9.699219 C 10.84375 9.65625 11.105469 9.15625 11.402344 8.589844 C 11.695312 8.023438 11.949219 7.558594 11.960938 7.558594 C 11.976562 7.558594 12.230469 8.035156 12.53125 8.617188 C 12.902344 9.347656 13.109375 9.707031 13.183594 9.777344 C 13.410156 9.976562 13.839844 9.996094 14.09375 9.816406 C 14.222656 9.730469 14.304688 9.578125 15.179688 7.835938 C 15.703125 6.800781 16.121094 5.929688 16.109375 5.902344 C 16.097656 5.863281 15.984375 5.855469 15.539062 5.855469 C 15.234375 5.855469 14.964844 5.867188 14.945312 5.878906 C 14.921875 5.894531 14.625 6.464844 14.285156 7.144531 C 13.941406 7.835938 13.652344 8.371094 13.636719 8.355469 C 13.621094 8.339844 13.375 7.875 13.089844 7.320312 C 12.804688 6.765625 12.53125 6.261719 12.484375 6.199219 C 12.257812 5.890625 11.707031 5.882812 11.453125 6.183594 C 11.40625 6.238281 11.125 6.753906 10.824219 7.328125 C 10.523438 7.90625 10.269531 8.375 10.261719 8.375 C 10.25 8.375 9.976562 7.835938 9.648438 7.175781 C 9.324219 6.515625 9.03125 5.945312 9.007812 5.914062 C 8.960938 5.863281 8.890625 5.855469 8.425781 5.855469 C 8.132812 5.855469 7.871094 5.871094 7.847656 5.886719 C 7.792969 5.917969 8.0625 6.503906 9.078125 8.582031 C 9.628906 9.699219 9.699219 9.804688 9.941406 9.898438 C 10.121094 9.960938 10.449219 9.9375 10.625 9.847656 Z M 10.625 9.847656 "/>
</g>
</svg>
